<svg xmlns="http://www.w3.org/2000/svg" width="190" height="190">
  <g fill="none" stroke="#686A71" stroke-width="1.1" opacity="0.035" stroke-linecap="round" stroke-linejoin="round">
    <path d="M18 24c0 4 1 7 3 10l-6 7c-1 2-1 5 1 7l2 2"/>
    <path d="M26 16c4 0 7 1 10 3l7-6c2-1 5-1 7 1l2 2"/>
    <circle cx="18" cy="24" r="4"/>
    <circle cx="26" cy="16" r="4"/>
    <path d="M58 52c-2 4-2 9 0 12 1 2 3 4 6 4s4-2 6-4c2-3 2-8 0-12-1-4-4-8-6-12-2 4-4 8-6 12z"/>
    <path d="M120 30c-4-4-10-3-14 3-3-6-10-7-14-3-3 2-4 7-3 10 1 4 7 9 17 14 10-5 16-10 17-14 1-3 0-8-3-10z"/>
    <path d="M92 92c-2-6-7-10-13-10-7 0-13 6-13 14s6 11 13 11 13-4 13-11c0-4-2-7-4-10"/>
    <path d="M104 89c-7 0-13 6-13 14s6 11 13 11 13-4 13-11-6-14-13-14z"/>
    <path d="M40 124c-2-3-5-5-9-5-5 0-9 3-9 8 0 3 2 5 5 7l3 2-3 2c-3 2-6 5-6 10 0 5 4 8 9 8s9-3 9-8c0-3-2-5-5-7"/>
    <path d="M156 128c-3-1-6-1-7 2s0 6 3 7"/>
    <path d="M156 128c-1-3-4-4-7-3-3 1-4 5-2 8"/>
    <path d="M156 128c0-4 2-7 5-7s5 3 5 7"/>
    <path d="M159 137c-1 2-3 6-3 12"/>
    <path d="M24 88l1 4 4 1-4 1-1 4-1-4-4-1 4-1z"/>
    <path d="M142 67l1 4 4 1-4 1-1 4-1-4-4-1 4-1z"/>
    <path d="M66 158l1 3 3 1-3 1-1 3-1-3-3-1 3-1z"/>
    <path d="M100 67c-1 0-3 1-3 3v7c0 2 2 3 3 3h14c1 0 3-1 3-3V70c0-2-2-3-3-3h-14z"/>
    <path d="M100 70l7 5 7-5"/>
    <circle cx="55" cy="144" r="4"/>
    <path d="M55 148v6l-2 2h4l-1-2"/>
    <path d="M170 88c-1 4-5 7-9 7s-8-3-9-7"/>
    <circle cx="162" cy="88" r="2"/>
    <circle cx="170" cy="88" r="2"/>
    <path d="M166 94l-2 6"/>
    <path d="M168 93l2 6"/>
    <path d="M14 172c0-1 1-3 2-3-1 0-2-1-2-3 0 2-1 3-2 3 1 0 2 1 2 3z"/>
    <path d="M176 14c0-1 1-2 2-2-1 0-2-1-2-2 0 1-1 2-2 2 1 0 2 1 2 2z"/>
    <path d="M135 178c0-1 1-2 1-2-1 0-1-1-1-2 0 1 0 2-1 2 1 0 1 1 1 2z"/>
    <path d="M140 145c-1 0-3 1-3 2v6c0 1 2 2 3 2h7c1 0 3-1 3-2v-6c0-1-2-2-3-2h-7z"/>
    <path d="M141 145v-2c0-2 2-4 4-4s3 2 3 4v2"/>
    <circle cx="38" cy="60" r="1"/>
    <circle cx="72" cy="24" r="0.8"/>
    <circle cx="12" cy="118" r="1"/>
    <circle cx="180" cy="52" r="0.8"/>
    <circle cx="88" cy="180" r="1"/>
    <circle cx="152" cy="102" r="0.8"/>
    <circle cx="32" cy="180" r="0.8"/>
    <circle cx="116" cy="10" r="1"/>
  </g>
</svg>
